<svg width="195" height="40" viewBox="0 0 195 40" fill="none" xmlns="http://www.w3.org/2000/svg">
<path d="M5.62547 28.2056C6.86596 28.2056 7.91172 28.0216 8.76276 27.6536C9.61379 27.2855 10.2449 26.7876 10.6559 26.1597C11.067 25.5319 11.2726 24.8355 11.2726 24.0706C11.2726 23.1468 11.0346 22.4144 10.5586 21.8731C10.0826 21.3319 9.502 20.9278 8.81685 20.6608C8.13169 20.3937 7.23378 20.1231 6.12311 19.8489C5.18553 19.618 4.43907 19.4051 3.88374 19.2102C3.3284 19.0154 2.86683 18.7339 2.49901 18.3659C2.13119 17.9979 1.94728 17.5107 1.94728 16.9046C1.94728 16.0963 2.28264 15.436 2.95337 14.9236C3.6241 14.4112 4.62298 14.1551 5.95002 14.1551C6.64239 14.1551 7.34918 14.2597 8.07039 14.469C8.7916 14.6783 9.46955 14.9922 10.1042 15.4107L10.6451 14.1334C10.0393 13.7149 9.3217 13.3865 8.4923 13.1484C7.6629 12.9102 6.81548 12.7911 5.95002 12.7911C4.70953 12.7911 3.67098 12.9788 2.83437 13.354C1.99776 13.7293 1.37752 14.2308 0.973639 14.8587C0.569759 15.4865 0.367819 16.1829 0.367819 16.9479C0.367819 17.886 0.609426 18.6293 1.09264 19.1778C1.57585 19.7262 2.15643 20.1339 2.83437 20.401C3.51231 20.668 4.42104 20.9458 5.56056 21.2345C6.51257 21.4654 7.25542 21.6783 7.78912 21.8731C8.32281 22.068 8.77357 22.3458 9.14139 22.7066C9.50921 23.0675 9.69312 23.551 9.69312 24.1572C9.69312 24.951 9.35415 25.5969 8.67621 26.0948C7.99827 26.5927 6.98136 26.8417 5.62547 26.8417C4.65905 26.8417 3.72147 26.6721 2.81274 26.3329C1.90401 25.9938 1.17558 25.5499 0.627457 25.0015L0 26.2355C0.562547 26.8273 1.35949 27.3036 2.39083 27.6644C3.42216 28.0252 4.50038 28.2056 5.62547 28.2056ZM16.2922 28.0757V16.0169L22.2423 26.1489H22.9995L28.9495 15.952V28.0757H30.4857V12.921H29.1659L22.6533 24.1572L16.0759 12.921H14.756V28.0757H16.2922ZM34.6616 28.0757L36.479 24.0273H44.9172L46.7347 28.0757H48.4223L41.4987 12.921H39.9192L32.9956 28.0757H34.6616ZM44.3331 22.7283H37.0632L40.6981 14.5881L44.3331 22.7283ZM52.5333 28.0757V23.2695H56.6009C57.0192 23.2695 57.4231 23.2479 57.8125 23.2046L61.2744 28.0757H63.0269L59.3271 22.8798C60.4378 22.519 61.2924 21.9309 61.891 21.1154C62.4896 20.2999 62.7889 19.3004 62.7889 18.1169C62.7889 16.5004 62.2408 15.2303 61.1446 14.3066C60.0483 13.3829 58.5338 12.921 56.6009 12.921H50.9322V28.0757H52.5333ZM56.5576 21.9056H52.5333V14.3066H56.5576C58.0578 14.3066 59.2045 14.635 59.9978 15.2917C60.7912 15.9484 61.1878 16.8901 61.1878 18.1169C61.1878 19.3149 60.7912 20.2458 59.9978 20.9097C59.2045 21.5736 58.0578 21.9056 56.5576 21.9056ZM70.9026 28.0757V14.3066H76.2252V12.921H63.9789V14.3066H69.3015V28.0757H70.9026Z" fill="#111827"/>
<path d="M91.4047 27.983C93.0202 27.983 94.4554 27.6691 95.7103 27.0413C96.9653 26.4134 97.9389 25.5258 98.6313 24.3784C99.3236 23.2309 99.6698 21.9067 99.6698 20.4057C99.6698 18.9046 99.3236 17.5804 98.6313 16.433C97.9389 15.2855 96.9653 14.3979 95.7103 13.7701C94.4554 13.1422 93.0202 12.8283 91.4047 12.8283H84.7839V27.983H91.4047ZM91.2749 25.6016H87.5967V15.2098H91.2749C92.3855 15.2098 93.3628 15.4227 94.2066 15.8484C95.0504 16.2742 95.6995 16.8804 96.1539 17.667C96.6083 18.4536 96.8354 19.3665 96.8354 20.4057C96.8354 21.4448 96.6083 22.3577 96.1539 23.1443C95.6995 23.9309 95.0504 24.5371 94.2066 24.9629C93.3628 25.3887 92.3855 25.6016 91.2749 25.6016ZM105.468 27.983V12.8283H102.656V27.983H105.468ZM110.315 27.983L111.808 24.4758H119.381L120.895 27.983H123.838L117.001 12.8283H114.231L107.416 27.983H110.315ZM118.45 22.2675H112.76L115.594 15.6428L118.45 22.2675ZM136.495 27.983V25.6016H128.576V12.8283H125.763V27.983H136.495ZM174.554 28.1995C175.65 28.1995 176.717 28.0335 177.756 27.7016C178.794 27.3696 179.703 26.8933 180.482 26.2727V20.2325H177.821V24.9521C176.926 25.4717 175.888 25.7315 174.705 25.7315C173.652 25.7315 172.711 25.5005 171.881 25.0387C171.052 24.5768 170.403 23.9418 169.934 23.1335C169.465 22.3253 169.231 21.416 169.231 20.4057C169.231 19.3665 169.465 18.4428 169.934 17.6345C170.403 16.8263 171.052 16.1984 171.881 15.751C172.711 15.3036 173.659 15.0799 174.727 15.0799C176.357 15.0799 177.749 15.6572 178.902 16.8118L180.677 15.0799C179.97 14.2716 179.097 13.6582 178.059 13.2397C177.02 12.8211 175.866 12.6118 174.597 12.6118C173.039 12.6118 171.636 12.9474 170.389 13.6185C169.141 14.2897 168.164 15.217 167.457 16.4005C166.75 17.584 166.397 18.9191 166.397 20.4057C166.397 21.8923 166.75 23.2273 167.457 24.4108C168.164 25.5943 169.137 26.5217 170.378 27.1928C171.618 27.8639 173.01 28.1995 174.554 28.1995ZM188.877 28.1995C190.204 28.1995 191.329 27.9974 192.252 27.5933C193.175 27.1892 193.864 26.648 194.318 25.9696C194.773 25.2913 195 24.5335 195 23.6964C195 22.715 194.744 21.9356 194.232 21.3582C193.72 20.7809 193.103 20.3515 192.382 20.0701C191.661 19.7887 190.738 19.518 189.613 19.2582C188.79 19.0562 188.141 18.8758 187.665 18.717C187.189 18.5582 186.796 18.3417 186.486 18.0675C186.176 17.7933 186.021 17.4397 186.021 17.0067C186.021 16.3861 186.291 15.8881 186.832 15.5129C187.373 15.1376 188.199 14.95 189.31 14.95C189.988 14.95 190.687 15.051 191.408 15.2531C192.13 15.4551 192.822 15.751 193.485 16.1407L194.373 13.9541C193.723 13.5211 192.952 13.1891 192.057 12.9582C191.163 12.7273 190.254 12.6118 189.331 12.6118C188.004 12.6118 186.883 12.8139 185.967 13.218C185.051 13.6221 184.366 14.167 183.911 14.8525C183.457 15.5381 183.23 16.2995 183.23 17.1366C183.23 18.1325 183.486 18.9227 183.998 19.5072C184.51 20.0917 185.123 20.5211 185.837 20.7954C186.551 21.0696 187.485 21.3438 188.639 21.618C189.461 21.8201 190.11 22.0005 190.586 22.1593C191.062 22.318 191.455 22.5381 191.765 22.8196C192.075 23.101 192.231 23.4583 192.231 23.8912C192.231 24.483 191.953 24.9593 191.398 25.3201C190.842 25.6809 190.002 25.8614 188.877 25.8614C187.968 25.8614 187.063 25.7062 186.161 25.3959C185.26 25.0856 184.499 24.6851 183.879 24.1943L182.905 26.3809C183.54 26.9294 184.402 27.3696 185.491 27.7016C186.58 28.0335 187.708 28.1995 188.877 28.1995Z" fill="#111827"/>
<path fill-rule="evenodd" clip-rule="evenodd" d="M163.602 31.1685C165.309 31.1685 166.693 32.5532 166.693 34.2613C166.693 35.9694 165.309 37.3541 163.602 37.3541C161.895 37.3541 160.511 35.9694 160.511 34.2613C160.511 33.7161 160.652 33.2038 160.9 32.759L161.032 32.5423L160.899 32.3933L163.678 32.7908L163.446 31.1762L163.602 31.1685ZM158.189 29.3546L160.561 29.6933L161.675 30.9412L159.301 30.6025L158.189 29.3546ZM154.313 22.6852L158.731 27.6412L158.765 27.8747L156.591 27.5639L153.146 23.7064C153.601 23.4476 153.998 23.0992 154.313 22.6852ZM151.239 18.0241C152.519 18.0241 153.557 19.0627 153.557 20.3437C153.557 21.6248 152.519 22.6633 151.239 22.6633C150.874 22.6633 150.522 22.5794 150.204 22.4203L149.676 22.156L149.328 21.6572C149.064 21.2737 148.92 20.8204 148.92 20.3437C148.92 19.8853 149.053 19.4484 149.298 19.0741L149.622 18.5801L150.156 18.2917C150.487 18.1168 150.855 18.0241 151.239 18.0241ZM156.303 13.5122C156.717 13.8205 157.103 14.1656 157.455 14.5428L154.352 18.0542C154.044 17.6358 153.654 17.2816 153.206 17.0157L156.303 13.5122ZM158.356 11.1894C158.763 11.5068 159.149 11.8508 159.51 12.2187L158.483 13.3806C158.126 13.0084 157.74 12.6638 157.33 12.3501L158.356 11.1894ZM163.602 3.33337C165.309 3.33337 166.693 4.71806 166.693 6.42617C166.693 8.13427 165.309 9.51896 163.602 9.51896C163.198 9.51896 162.811 9.44112 162.457 9.2996L162.197 9.18173L160.537 11.0585C160.173 10.6938 159.788 10.3502 159.383 10.0301L161.04 8.15617C160.706 7.6624 160.511 7.06705 160.511 6.42617C160.511 4.71806 161.895 3.33337 163.602 3.33337Z" fill="#4F46E5"/>
<path fill-rule="evenodd" clip-rule="evenodd" d="M151.239 7.97253C158.067 7.97253 163.602 13.5113 163.602 20.3437C163.602 22.5652 163.017 24.65 161.992 26.4521L162.767 31.8795L157.343 31.1041C155.542 32.1293 153.459 32.7149 151.239 32.7149C148.647 32.7149 146.242 31.9171 144.255 30.5535L146.336 28.221C147.759 29.109 149.439 29.6221 151.239 29.6221C153.005 29.6221 154.655 29.1281 156.06 28.2707L159.676 28.7867L159.161 25.1683C160.018 23.7625 160.511 22.1108 160.511 20.3437C160.511 15.2194 156.36 11.0653 151.239 11.0653C149.423 11.0653 147.73 11.5874 146.3 12.4896L144.231 10.1499C146.223 8.7766 148.637 7.97253 151.239 7.97253ZM141.924 12.2081L143.994 14.5517C142.725 16.139 141.966 18.1527 141.966 20.3437C141.966 22.5502 142.736 24.5767 144.021 26.1692L141.942 28.4996C140.032 26.3221 138.875 23.4682 138.875 20.3437C138.875 17.2289 140.025 14.383 141.924 12.2081Z" fill="#4F46E5"/>
<path fill-rule="evenodd" clip-rule="evenodd" d="M138.875 3.33337C140.582 3.33337 141.966 4.71806 141.966 6.42617C141.966 7.06705 141.771 7.6624 141.437 8.15617L149.795 17.6083C150.226 17.3801 150.717 17.2509 151.239 17.2509C152.946 17.2509 154.33 18.6356 154.33 20.3437C154.33 22.0518 152.946 23.4365 151.239 23.4365C150.743 23.4365 150.274 23.3196 149.859 23.1119L141.445 32.5423C141.774 33.0339 141.966 33.6252 141.966 34.2613C141.966 35.9694 140.582 37.3541 138.875 37.3541C137.168 37.3541 135.784 35.9694 135.784 34.2613C135.784 32.5532 137.168 31.1685 138.875 31.1685C139.386 31.1685 139.868 31.2925 140.292 31.5121L148.691 22.0957C148.348 21.5977 148.148 20.9942 148.148 20.3437C148.148 19.7185 148.333 19.1366 148.652 18.6501L140.28 9.18173C139.858 9.39734 139.381 9.51896 138.875 9.51896C137.168 9.51896 135.784 8.13427 135.784 6.42617C135.784 4.71806 137.168 3.33337 138.875 3.33337Z" fill="#4F46E5"/>
</svg>
